<svg version="1.1" id="Layer_1" xmlns="http://www.w3.org/2000/svg" width="36px" height="36px" viewBox="0 0 40 40" enable-background="new 0 0 40 40" xml:space="preserve">
     <g>
         <path d="M33.732,10.556h-8.844c-0.043-1.488-1.26-2.686-2.758-2.686H6.267C4.741,7.87,3.5,9.11,3.5,10.637v10.405 c0,1.527,1.241,2.768,2.767,2.768h1.292l4.637,5.353c0.156,0.181,0.382,0.282,0.619,0.282c0.094,0,0.19-0.016,0.287-0.051 c0.318-0.119,0.532-0.428,0.532-0.768V23.81h1.478c0.043,1.487,1.26,2.687,2.758,2.687h8.498v4.815c0,0.34,0.214,0.648,0.534,0.769 c0.095,0.034,0.19,0.05,0.284,0.05c0.236,0,0.463-0.102,0.619-0.281l4.637-5.353h1.291c1.526,0,2.768-1.241,2.768-2.768V13.323 C36.5,11.796,35.259,10.556,33.732,10.556z M15.102,13.323v8.848h-2.288c-0.452,0-0.819,0.368-0.819,0.819v3.44l-3.443-3.978 c-0.157-0.178-0.382-0.282-0.646-0.282c0,0-1.638,0-1.638,0c-0.623,0-1.129-0.505-1.129-1.129V10.637 c0-0.622,0.507-1.13,1.129-1.13h15.864c0.594,0,1.068,0.466,1.111,1.049h-5.374C16.343,10.556,15.102,11.796,15.102,13.323z M34.862,23.729c0,0.623-0.507,1.129-1.13,1.129h-1.664c-0.236,0-0.463,0.102-0.621,0.282l-3.442,3.977v-3.44 c0-0.451-0.368-0.818-0.819-0.818h-9.317c-0.622,0-1.128-0.506-1.128-1.129V13.323c0-0.623,0.506-1.13,1.128-1.13h15.864 c0.623,0,1.13,0.507,1.13,1.13V23.729z"></path>
         <path d="M32.841,14.703h-14.08c-0.452,0-0.819,0.367-0.819,0.818s0.367,0.819,0.819,0.819h14.08c0.452,0,0.82-0.368,0.82-0.819 S33.293,14.703,32.841,14.703z"></path>
         <path d="M32.841,17.706h-14.08c-0.452,0-0.819,0.367-0.819,0.819c0,0.451,0.367,0.819,0.819,0.819h14.08 c0.452,0,0.82-0.368,0.82-0.819C33.661,18.073,33.293,17.706,32.841,17.706z"></path>
         <path d="M25.426,20.71h-6.665c-0.452,0-0.819,0.367-0.819,0.818s0.367,0.819,0.819,0.819h6.665c0.451,0,0.818-0.368,0.818-0.819 S25.877,20.71,25.426,20.71z"></path>
     </g>
</svg>