<svg version="1.1" id="Layer_1" xmlns="http://www.w3.org/2000/svg" width="30px" height="30px" viewBox="0 0 40 40" enable-background="new 0 0 40 40" xml:space="preserve">
    <path d="M34.79,10.744c-0.134-0.134-0.316-0.209-0.505-0.209c-0.002,0-0.002,0-0.002,0l-2.141,0.008V7.679 c0-0.395-0.32-0.714-0.714-0.714h-0.894c-5.365,0-8.508,0.778-10.535,2.659c-2.027-1.881-5.17-2.659-10.535-2.659H8.571 c-0.394,0-0.714,0.319-0.714,0.714v2.864l-2.141-0.008c-0.194-0.001-0.373,0.075-0.507,0.209C5.075,10.878,5,11.061,5,11.25v18.393 c0,0.395,0.32,0.714,0.715,0.714h0.893c9.612,0,11.666,2.169,11.869,2.419c0.136,0.163,0.338,0.26,0.553,0.26h1.94 c0.216,0,0.418-0.097,0.554-0.26c0.202-0.25,2.257-2.419,11.869-2.419h0.893c0.395,0,0.715-0.319,0.715-0.714V11.25 C35,11.061,34.924,10.878,34.79,10.744z M6.429,28.929V11.966l1.429,0.006v16.97c-0.404-0.009-0.82-0.013-1.25-0.013H6.429z M9.286,28.988V11.265c0-0.002,0-0.004,0-0.008V8.393h0.179c5.221,0,8.101,0.738,9.82,2.534v20.632 C18.339,30.69,15.814,29.291,9.286,28.988z M20.715,31.559V10.927c1.718-1.796,4.6-2.534,9.82-2.534h0.179v2.864v17.731 C24.184,29.291,21.661,30.69,20.715,31.559z M33.571,28.929h-0.179c-0.431,0-0.846,0.004-1.25,0.013v-16.97l1.429-0.006V28.929z"></path>
</svg>