<svg version="1.1" id="Layer_1" xmlns="http://www.w3.org/2000/svg" width="30px" height="30px" viewBox="0 0 40 40" enable-background="new 0 0 40 40" xml:space="preserve">
   <g>
       <path d="M31.228,5H8.772C6.762,5,5.125,6.637,5.125,8.646v14.731c0,2.011,1.636,3.646,3.647,3.646H21.07v7.086 c0,0.372,0.23,0.705,0.578,0.833C21.751,34.981,21.855,35,21.96,35c0.253,0,0.499-0.107,0.673-0.307l6.644-7.669h1.951 c2.011,0,3.647-1.636,3.647-3.646V8.646C34.875,6.637,33.238,5,31.228,5z M33.096,23.378c0,1.028-0.838,1.867-1.868,1.867 c0,0-2.303,0-2.315,0c-0.264-0.013-0.529,0.093-0.716,0.306l-5.347,6.173v-5.589c0-0.492-0.398-0.89-0.89-0.89H8.772 c-1.029,0-1.866-0.839-1.866-1.867V8.646c0-1.028,0.837-1.865,1.866-1.865h22.455c1.03,0,1.868,0.837,1.868,1.865V23.378 L33.096,23.378L33.096,23.378z"></path>
       <path d="M29.965,10.87h-19.93c-0.491,0-0.89,0.399-0.89,0.892c0,0.49,0.398,0.89,0.89,0.89h19.93c0.492,0,0.891-0.399,0.891-0.89 C30.855,11.27,30.457,10.87,29.965,10.87z"></path>
       <path d="M29.965,15.123h-19.93c-0.491,0-0.89,0.397-0.89,0.89c0,0.489,0.398,0.89,0.89,0.89h19.93c0.492,0,0.891-0.4,0.891-0.89 C30.855,15.521,30.457,15.123,29.965,15.123z"></path>
       <path d="M19.469,19.373h-9.434c-0.491,0-0.89,0.399-0.89,0.89c0,0.492,0.398,0.892,0.89,0.892h9.434 c0.491,0,0.89-0.399,0.89-0.892C20.358,19.772,19.96,19.373,19.469,19.373z"></path>
    </g>
</svg>